<mxfile host="app.diagrams.net" modified="2023-05-21T09:31:45.557Z" agent="Mozilla/5.0 (Windows NT 10.0; Win64; x64) AppleWebKit/537.36 (KHTML, like Gecko) Chrome/113.0.0.0 Safari/537.36" etag="ZAWUssVtAEERMTizR4Xv" version="21.3.2" type="github">
  <diagram name="Страница 1" id="Ffn3UUR4qd1xTB4vQpt5">
    <mxGraphModel dx="1050" dy="549" grid="1" gridSize="10" guides="1" tooltips="1" connect="1" arrows="1" fold="1" page="1" pageScale="1" pageWidth="827" pageHeight="1169" math="0" shadow="0">
      <root>
        <mxCell id="0" />
        <mxCell id="1" parent="0" />
        <mxCell id="UZxM05015_ynA5AdG3H_-3" value="" style="edgeStyle=orthogonalEdgeStyle;rounded=0;orthogonalLoop=1;jettySize=auto;html=1;" edge="1" parent="1" source="UZxM05015_ynA5AdG3H_-1" target="UZxM05015_ynA5AdG3H_-2">
          <mxGeometry relative="1" as="geometry" />
        </mxCell>
        <mxCell id="UZxM05015_ynA5AdG3H_-1" value="Start" style="rounded=1;whiteSpace=wrap;html=1;" vertex="1" parent="1">
          <mxGeometry x="354" width="120" height="60" as="geometry" />
        </mxCell>
        <mxCell id="UZxM05015_ynA5AdG3H_-5" value="" style="edgeStyle=orthogonalEdgeStyle;rounded=0;orthogonalLoop=1;jettySize=auto;html=1;" edge="1" parent="1" source="UZxM05015_ynA5AdG3H_-2" target="UZxM05015_ynA5AdG3H_-4">
          <mxGeometry relative="1" as="geometry" />
        </mxCell>
        <mxCell id="UZxM05015_ynA5AdG3H_-2" value="mas[size]" style="shape=parallelogram;perimeter=parallelogramPerimeter;whiteSpace=wrap;html=1;fixedSize=1;" vertex="1" parent="1">
          <mxGeometry x="354" y="90" width="120" height="60" as="geometry" />
        </mxCell>
        <mxCell id="UZxM05015_ynA5AdG3H_-7" value="" style="edgeStyle=orthogonalEdgeStyle;rounded=0;orthogonalLoop=1;jettySize=auto;html=1;" edge="1" parent="1" source="UZxM05015_ynA5AdG3H_-4" target="UZxM05015_ynA5AdG3H_-6">
          <mxGeometry relative="1" as="geometry" />
        </mxCell>
        <mxCell id="UZxM05015_ynA5AdG3H_-4" value="i&amp;nbsp; = 0&lt;br&gt;sr = 0" style="rounded=0;whiteSpace=wrap;html=1;" vertex="1" parent="1">
          <mxGeometry x="354" y="180" width="120" height="60" as="geometry" />
        </mxCell>
        <mxCell id="UZxM05015_ynA5AdG3H_-9" value="" style="edgeStyle=orthogonalEdgeStyle;rounded=0;orthogonalLoop=1;jettySize=auto;html=1;" edge="1" parent="1" source="UZxM05015_ynA5AdG3H_-6" target="UZxM05015_ynA5AdG3H_-8">
          <mxGeometry relative="1" as="geometry" />
        </mxCell>
        <mxCell id="UZxM05015_ynA5AdG3H_-14" value="" style="edgeStyle=orthogonalEdgeStyle;rounded=0;orthogonalLoop=1;jettySize=auto;html=1;" edge="1" parent="1" source="UZxM05015_ynA5AdG3H_-6" target="UZxM05015_ynA5AdG3H_-13">
          <mxGeometry relative="1" as="geometry" />
        </mxCell>
        <mxCell id="UZxM05015_ynA5AdG3H_-6" value="i &amp;lt; size" style="rhombus;whiteSpace=wrap;html=1;rounded=0;" vertex="1" parent="1">
          <mxGeometry x="374" y="260" width="80" height="80" as="geometry" />
        </mxCell>
        <mxCell id="UZxM05015_ynA5AdG3H_-11" value="" style="edgeStyle=orthogonalEdgeStyle;rounded=0;orthogonalLoop=1;jettySize=auto;html=1;" edge="1" parent="1" source="UZxM05015_ynA5AdG3H_-8" target="UZxM05015_ynA5AdG3H_-10">
          <mxGeometry relative="1" as="geometry" />
        </mxCell>
        <mxCell id="UZxM05015_ynA5AdG3H_-8" value="sr = sr + mas[i]" style="whiteSpace=wrap;html=1;rounded=0;" vertex="1" parent="1">
          <mxGeometry x="354" y="380" width="120" height="60" as="geometry" />
        </mxCell>
        <mxCell id="UZxM05015_ynA5AdG3H_-12" style="edgeStyle=orthogonalEdgeStyle;rounded=0;orthogonalLoop=1;jettySize=auto;html=1;exitX=0.5;exitY=0;exitDx=0;exitDy=0;entryX=1;entryY=0.5;entryDx=0;entryDy=0;" edge="1" parent="1" source="UZxM05015_ynA5AdG3H_-10" target="UZxM05015_ynA5AdG3H_-6">
          <mxGeometry relative="1" as="geometry" />
        </mxCell>
        <mxCell id="UZxM05015_ynA5AdG3H_-10" value="i = i + 1" style="whiteSpace=wrap;html=1;rounded=0;" vertex="1" parent="1">
          <mxGeometry x="500" y="380" width="120" height="60" as="geometry" />
        </mxCell>
        <mxCell id="UZxM05015_ynA5AdG3H_-16" value="" style="edgeStyle=orthogonalEdgeStyle;rounded=0;orthogonalLoop=1;jettySize=auto;html=1;" edge="1" parent="1" source="UZxM05015_ynA5AdG3H_-13" target="UZxM05015_ynA5AdG3H_-15">
          <mxGeometry relative="1" as="geometry" />
        </mxCell>
        <mxCell id="UZxM05015_ynA5AdG3H_-13" value="sr = sr / size" style="whiteSpace=wrap;html=1;rounded=0;" vertex="1" parent="1">
          <mxGeometry x="220" y="270" width="120" height="60" as="geometry" />
        </mxCell>
        <mxCell id="UZxM05015_ynA5AdG3H_-18" value="" style="edgeStyle=orthogonalEdgeStyle;rounded=0;orthogonalLoop=1;jettySize=auto;html=1;" edge="1" parent="1" source="UZxM05015_ynA5AdG3H_-15" target="UZxM05015_ynA5AdG3H_-17">
          <mxGeometry relative="1" as="geometry" />
        </mxCell>
        <mxCell id="UZxM05015_ynA5AdG3H_-15" value="sr" style="shape=document;whiteSpace=wrap;html=1;boundedLbl=1;rounded=0;" vertex="1" parent="1">
          <mxGeometry x="40" y="260" width="120" height="80" as="geometry" />
        </mxCell>
        <mxCell id="UZxM05015_ynA5AdG3H_-17" value="Finish" style="rounded=1;whiteSpace=wrap;html=1;" vertex="1" parent="1">
          <mxGeometry x="40" y="390" width="120" height="60" as="geometry" />
        </mxCell>
        <mxCell id="UZxM05015_ynA5AdG3H_-19" value="Yes" style="text;html=1;align=center;verticalAlign=middle;resizable=0;points=[];autosize=1;strokeColor=none;fillColor=none;" vertex="1" parent="1">
          <mxGeometry x="414" y="340" width="40" height="30" as="geometry" />
        </mxCell>
        <mxCell id="UZxM05015_ynA5AdG3H_-20" value="No" style="text;html=1;align=center;verticalAlign=middle;resizable=0;points=[];autosize=1;strokeColor=none;fillColor=none;" vertex="1" parent="1">
          <mxGeometry x="340" y="270" width="40" height="30" as="geometry" />
        </mxCell>
      </root>
    </mxGraphModel>
  </diagram>
</mxfile>
